HIERARCHY
ROOT ui
{
	 OFFSET 0 0 0
	 CHANNELS 3 XPosition YPosition Z Position
	 EndSite
	 {
	 OFFSET 0 -1 0
	 }
}
ROOT li
{
	 OFFSET 0 0 0
	 CHANNELS 3 XPosition YPosition Z Position
	 EndSite
	 {
	 OFFSET 0 -1 0
	 }
}
ROOT ul
{
	 OFFSET 0 0 0
	 CHANNELS 3 XPosition YPosition Z Position
	 EndSite
	 {
	 OFFSET 0 -1 0
	 }
}
ROOT ll
{
	 OFFSET 0 0 0
	 CHANNELS 3 XPosition YPosition Z Position
	 EndSite
	 {
	 OFFSET 0 -1 0
	 }
}
ROOT tt
{
	 OFFSET 0 0 0
	 CHANNELS 3 XPosition YPosition Z Position
	 EndSite
	 {
	 OFFSET 0 -1 0
	 }
}
ROOT tb
{
	 OFFSET 0 0 0
	 CHANNELS 3 XPosition YPosition Z Position
	 EndSite
	 {
	 OFFSET 0 -1 0
	 }
}
ROOT td
{
	 OFFSET 0 0 0
	 CHANNELS 3 XPosition YPosition Z Position
	 EndSite
	 {
	 OFFSET 0 -1 0
	 }
}
ROOT v
{
	 OFFSET 0 0 0
	 CHANNELS 3 XPosition YPosition Z Position
	 EndSite
	 {
	 OFFSET 0 -1 0
	 }
}
ROOT bn
{
	 OFFSET 0 0 0
	 CHANNELS 3 XPosition YPosition Z Position
	 EndSite
	 {
	 OFFSET 0 -1 0
	 }
}
MOTION
Frames: 18
Frame Time: 0.002
0.0026135060787200928	-1.5981799364089965E-4	0		0.5132014770507812	-2.540617431640625	0		-0.7961979370117187	0.39461767578125	0		-0.21010440063476563	-3.056158447265625	0		1.6317943115234375	-0.9432371215820312	0		3.19459912109375	-0.40306854248046875	0		4.49109130859375	-0.06868297576904298	0		5.90547998046875	0.2129973602294922	0		-0.3401357421875	5.91805224609375	0		
0.002499361038208008	1.5762199461460114E-4	0		0.51500439453125	-2.537358642578125	0		-0.8682666015625	0.3971269226074219	0		-0.34181536865234374	-3.019724609375	0		1.620824951171875	-0.9308291625976562	0		3.171786865234375	-0.3825501403808594	0		4.4940693359375	-0.06264504623413086	0		5.90539306640625	0.213019775390625	0		-0.30585400390625	5.92384326171875	0		
0.0024253799915313723	4.6484100818634035E-4	0		0.5329339599609375	-2.52936572265625	0		-0.7963467407226562	0.3953219299316406	0		-0.21700299072265625	-3.0184052734375	0		1.624074462890625	-0.9076510620117187	0		3.200530517578125	-0.39285946655273435	0		4.50089501953125	-0.06866595458984374	0		5.9168603515625	0.22991111755371094	0		-0.17232264709472656	5.9430302734375	0		
-6.595309972763061E-4	-0.0021910998821258543	0		0.5327848510742188	-2.52909375	0		-0.7963663330078125	0.3956527404785156	0		-0.32075836181640627	-2.99143115234375	0		1.643978515625	-0.908748779296875	0		3.198669189453125	-0.380675048828125	0		4.4867763671875	-0.07334397888183594	0		5.9168291015625	0.2299673614501953	0		-0.1730803680419922	5.944349609375	0		
-6.634309887886047E-4	-0.001908756971359253	0		0.5565968627929687	-2.53421875	0		-0.8063369750976562	0.39712774658203126	0		-0.21692680358886718	-2.99481201171875	0		1.64110009765625	-0.8984848022460937	0		3.195570068359375	-0.38547085571289064	0		4.49775244140625	-0.0744171371459961	0		5.9126591796875	0.24751243591308594	0		-0.30520147705078127	5.92376904296875	0		
-6.377350091934204E-4	-0.0016407690048217773	0		0.5087020568847657	-2.5231962890625	0		-0.8633707275390625	0.3933450927734375	0		-0.33660211181640626	-2.9686015625	0		1.6462069091796876	-0.8913556518554687	0		3.181874755859375	-0.3670904541015625	0		4.50753173828125	-0.08946546173095703	0		5.923060546875	0.20049522399902345	0		-0.2888260192871094	5.9327880859375	0		
0.002462069034576416	0.0015631959438323975	0		0.5387080078125	-2.521444091796875	0		-0.7913330688476562	0.39145846557617187	0		-0.3342334289550781	-2.943374267578125	0		1.651571533203125	-0.8702348022460937	0		3.248680419921875	-0.3820133972167969	0		4.5006787109375	-0.08323260498046875	0		5.9200712890625	0.28206951904296873	0		-0.2866325378417969	5.93101708984375	0		
0.0025360329151153565	0.0018003900051116943	0		0.513808349609375	-2.515814697265625	0		-0.79616845703125	0.39679425048828126	0		-0.3389509887695312	-2.926050537109375	0		1.6818646240234374	-0.8555236206054687	0		3.218106201171875	-0.359351318359375	0		4.51278173828125	-0.08129342651367187	0		5.9164404296875	0.265086181640625	0		-0.15506689453125	5.95213525390625	0		
-4.200989902019501E-4	-9.296380281448364E-4	0		0.5548723754882813	-2.515266845703125	0		-0.7960701904296875	0.39702752685546877	0		-0.3456598815917969	-2.910712890625	0		1.642208251953125	-0.8386819458007813	0		3.200130126953125	-0.3628876342773438	0		4.50877587890625	-0.08707654571533203	0		5.9165048828125	0.26530966186523436	0		-0.16904316711425782	5.9425869140625	0		
-3.142290115356445E-4	-7.257980108261109E-4	0		0.5030480041503906	-2.509223876953125	0		-0.79596142578125	0.39723715209960936	0		-0.3591351623535156	-2.883282958984375	0		1.68738330078125	-0.8342208862304688	0		3.2152314453125	-0.36295040893554686	0		4.51065380859375	-0.10093604278564453	0		5.91289892578125	0.24843034362792968	0		-0.16889414978027345	5.9427919921875	0		
-1.9911199808120728E-4	-5.399100184440613E-4	0		0.538982421875	-2.5206201171875	0		-0.7958467407226563	0.3974222412109375	0		-0.3610980529785156	-2.888064208984375	0		1.6397813720703125	-0.8162567138671875	0		3.238279052734375	-0.3671339721679687	0		4.493884765625	-0.09347074127197266	0		5.94111376953125	0.18882711791992188	0		-0.30115701293945313	5.921123046875	0		
-7.92590007185936E-5	-3.726609945297241E-4	0		0.484505126953125	-2.49655908203125	0		-0.8636404418945313	0.40368438720703126	0		-0.37143182373046874	-2.85572607421875	0		1.652134033203125	-0.8022711791992188	0		3.22177734375	-0.3436649475097656	0		4.50398779296875	-0.09442507934570313	0		5.94119970703125	0.18920947265625	0		-0.2859140319824219	5.93204248046875	0		
0.025037200927734374	-6.295850276947021E-4	0		0.5277098999023437	-2.494099853515625	0		-0.80153564453125	0.40281353759765626	0		-0.4177556457519531	-2.823826904296875	0		1.6317398681640625	-0.7727589111328125	0		3.236739013671875	-0.35370428466796877	0		4.5010283203125	-0.09915187835693359	0		5.93090185546875	0.23676397705078125	0		-0.15453883361816406	5.953060546875	0		
1.5371300280094146E-4	-9.613099694252014E-5	0		0.5107896423339844	-2.4996826171875	0		-0.8014323120117187	0.40292227172851564	0		-0.3785295104980469	-2.821340087890625	0		1.635162841796875	-0.7546411743164062	0		3.249037353515625	-0.3426917419433594	0		4.50114404296875	-0.09891270446777344	0		5.92844384765625	0.2840556640625	0		-0.16776443481445313	5.9413974609375	0		
2.5168299674987793E-4	1.2401999905705452E-5	0		0.5182084350585937	-2.4846728515625	0		-0.80134716796875	0.4030052795410156	0		-0.4180458984375	-2.80260009765625	0		1.6375589599609375	-0.7375150756835938	0		3.226197509765625	-0.33910882568359374	0		4.49714892578125	-0.10459545135498047	0		5.93890234375	0.23744879150390624	0		-0.16882330322265626	5.94351611328125	0		
-0.08069640350341797	-5.944790244102478E-4	0		0.47939764404296875	-2.482936767578125	0		-0.8673447265625	0.40012661743164063	0		-0.4087059020996094	-2.792673828125	0		1.649900634765625	-0.7225596923828125	0		3.22222021484375	-0.34283297729492185	0		4.4880185546875	-0.11718962097167969	0		5.936669921875	0.21559056091308593	0		-0.3354210205078125	5.917275390625	0		
0.013271862983703614	-0.006039275169372559	0		0.5116083679199219	-2.47936279296875	0		-0.8541261596679688	0.41194723510742187	0		-0.46118185424804686	-2.76977490234375	0		1.6624404296875	-0.6936177368164063	0		3.261338623046875	-0.33925436401367187	0		4.49524365234375	-0.10604387664794922	0		5.9567431640625	0.22574957275390625	0		-0.16624925231933593	5.939611328125	0		
0.0034352030754089356	0.0031682980060577393	0		0.49406253051757815	-2.459005615234375	0		-0.7862001953125	0.4068673400878906	0		-0.4107711486816406	-2.753551025390625	0		1.6598746337890624	-0.669448486328125	0		3.241646728515625	-0.32173846435546877	0		4.49908935546875	-0.11685212707519531	0		5.93901123046875	0.239110107421875	0		-0.3159818115234375	5.9110419921875	0		
